<?xml version="1.0" encoding="UTF-8"?>
<svg id="Layer_1" xmlns="http://www.w3.org/2000/svg" xmlns:xlink="http://www.w3.org/1999/xlink" version="1.1" viewBox="0 0 107.7 48.2">
  <defs>
    <style>
      .cls-1 {
        fill: #ea1d2d;
      }

      .cls-1, .cls-2, .cls-3, .cls-4, .cls-5, .cls-6, .cls-7, .cls-8, .cls-9, .cls-10, .cls-11, .cls-12, .cls-13, .cls-14, .cls-15, .cls-16, .cls-17, .cls-18, .cls-19 {
        stroke-width: 0px;
      }

      .cls-2 {
        fill: #1b3668;
      }

      .cls-3 {
        fill: #5391c6;
      }

      .cls-20 {
        clip-path: url(#clippath);
      }

      .cls-4 {
        fill: #48773c;
      }

      .cls-5 {
        fill: none;
      }

      .cls-6 {
        fill: #2d9a47;
      }

      .cls-7 {
        fill: #f99d25;
      }

      .cls-8 {
        fill: #cd8b2a;
      }

      .cls-9 {
        fill: #5fbb46;
      }

      .cls-10 {
        fill: #00558a;
      }

      .cls-11 {
        fill: #8f1838;
      }

      .cls-12 {
        fill: #00add8;
      }

      .cls-13 {
        fill: #f36e24;
      }

      .cls-14 {
        fill: #c22033;
      }

      .cls-15 {
        fill: #ef412a;
      }

      .cls-16 {
        fill: #007dbb;
      }

      .cls-17 {
        fill: #fdb714;
      }

      .cls-18 {
        fill: #e01b83;
      }

      .cls-19 {
        fill: #d19f2a;
      }
    </style>
    <clipPath id="clippath">
      <rect class="cls-5" width="107.7" height="48.2" />
    </clipPath>
  </defs>
  <polygon class="cls-3" points="0 1.2 0 46.6 6.9 46.6 6.9 25.9 22.2 25.9 22.2 19.4 6.9 19.4 6.9 7.7 22.7 7.7 22.7 1.2 0 1.2" />
  <path class="cls-3" d="M41.9,1.2h-3.2l-20.8,45.4h7.5l4.7-10.4h0s19.9,0,19.9,0h0s4.5,10.4,4.5,10.4h7.5L41.9,1.2ZM33.3,29.3l7-16.5,6.7,16.5.3.7h-14.3l.3-.7Z" />
  <g class="cls-20">
    <path class="cls-9" d="M71.9,17.2c.6-1,1.3-2,2.2-2.8l-7.1-7.8c-1.8,1.7-3.3,3.7-4.5,5.9l9.4,4.7Z" />
    <path class="cls-19" d="M89.2,11.7c1.1.5,2.1,1.1,3,1.9l7.1-7.8c-1.9-1.6-4-2.9-6.3-3.9l-3.8,9.8Z" />
    <path class="cls-14" d="M105.5,14.1l-9.4,4.7c.4,1,.8,2.2.9,3.3l10.5-1c-.3-2.5-1-4.8-2-7" />
    <path class="cls-6" d="M95.4,17.4l9.4-4.7c-1.2-2.2-2.7-4.1-4.4-5.8l-7.1,7.8c.8.8,1.5,1.8,2.1,2.8" />
    <path class="cls-4" d="M70,24.1c0-.2,0-.4,0-.6l-10.5-.9c0,.5,0,1,0,1.6,0,2,.2,4,.7,5.8l10.1-2.9c-.2-.9-.3-1.9-.3-2.9" />
    <path class="cls-17" d="M94.1,32.7c-.7.9-1.6,1.7-2.6,2.4l5.5,9c2.1-1.4,3.9-3.1,5.4-5l-8.4-6.3Z" />
    <path class="cls-15" d="M97.2,24.1c0,1-.1,2-.3,2.9l10.1,2.9c.5-1.9.7-3.8.7-5.8s0-1,0-1.5l-10.5,1c0,.2,0,.3,0,.5" />
    <path class="cls-7" d="M73.2,32.9l-8.4,6.4c1.6,1.9,3.4,3.6,5.5,5l5.5-8.9c-1-.7-1.9-1.5-2.6-2.4" />
    <path class="cls-16" d="M70.2,21.9c.2-1.2.5-2.3,1-3.4l-9.4-4.7c-1,2.2-1.8,4.6-2.1,7.1l10.5.9Z" />
    <path class="cls-11" d="M95.8,44.9l-5.5-8.9c-1,.6-2.1,1-3.2,1.3l1.9,10.3c2.4-.6,4.7-1.5,6.8-2.7" />
    <path class="cls-12" d="M96.4,28.4c-.4,1.1-.9,2.1-1.5,3l8.4,6.3c1.4-2,2.4-4.1,3.2-6.5l-10.1-2.9Z" />
    <path class="cls-13" d="M85.5,37.5c-.6,0-1.3.1-2,.1s-1.1,0-1.6,0l-1.9,10.3c1.2.2,2.3.3,3.5.3s2.6-.1,3.9-.3l-1.9-10.3Z" />
    <path class="cls-1" d="M84.4,10.5c1.2,0,2.3.3,3.4.6l3.8-9.8c-2.2-.8-4.6-1.3-7.1-1.4v10.5Z" />
    <path class="cls-18" d="M80.5,37.3c-1.2-.3-2.3-.7-3.3-1.3l-5.5,9c2.1,1.2,4.5,2.1,6.9,2.6l1.9-10.3Z" />
    <path class="cls-2" d="M79.5,11.1c1.1-.3,2.2-.6,3.4-.6V0c-2.5,0-5,.5-7.2,1.3l3.8,9.8Z" />
    <path class="cls-8" d="M72.3,31.7c-.7-1-1.2-2.1-1.6-3.2l-10.1,2.9c.8,2.4,1.9,4.7,3.3,6.7l8.4-6.4Z" />
    <path class="cls-10" d="M75.1,13.4c.9-.7,1.9-1.3,2.9-1.8l-3.8-9.8c-2.3,1-4.4,2.2-6.2,3.8l7.1,7.8Z" />
  </g>
</svg>